<?xml version="1.0" encoding="UTF-8" standalone="no"?>
<!DOCTYPE svg PUBLIC "-//W3C//DTD SVG 1.1//EN" "http://www.w3.org/Graphics/SVG/1.1/DTD/svg11.dtd">
<svg width="100%" height="100%" viewBox="0 0 280 372" version="1.1" xmlns="http://www.w3.org/2000/svg" xmlns:xlink="http://www.w3.org/1999/xlink" xml:space="preserve" xmlns:serif="http://www.serif.com/" style="fill-rule:evenodd;clip-rule:evenodd;stroke-linecap:round;stroke-linejoin:round;">
    <g id="Tracks" transform="matrix(1,0,0,1,-116.757,-70.2122)">
        <path d="M184.669,383.325L128.963,436.182L156.816,409.753L355.738,409.753L327.885,383.325L383.591,436.182" style="fill:none;stroke:black;stroke-width:10.67px;"/>
    </g>
    <g id="ICE-Frame-and-Painting" serif:id="ICE Frame and Painting">
        <g id="ICE-Painting" transform="matrix(1,0,0,1,-116.757,-70.2122)">
            <path d="M125.065,258.793C173.627,264.428 201.399,282.631 217.867,318.902C225.867,336.52 240.72,336.304 256.3,336.619L256.277,336.619C271.857,336.304 286.71,336.52 294.71,318.902C311.178,282.631 338.95,264.428 387.511,258.793" style="fill:none;stroke:rgb(242,13,13);stroke-width:10.67px;stroke-linecap:butt;stroke-miterlimit:1.5;"/>
        </g>
        <g id="ICE-Frame" transform="matrix(0.997916,0,-0.0495769,0.959693,-97.5857,-56.011)">
            <path d="M256.709,384.626L187.67,384.626C149.647,384.626 118.777,352.527 118.777,312.989L118.777,135.558C118.777,96.02 149.647,63.921 187.67,63.921L293.882,63.921C331.905,63.921 365.965,96.02 369.894,135.558L387.523,312.989C391.452,352.527 363.771,384.626 325.748,384.626L256.709,384.626" style="fill:none;stroke:black;stroke-width:11.18px;stroke-linecap:butt;stroke-miterlimit:1.5;"/>
        </g>
    </g>
    <g id="Windiws--Better-Bahn-" serif:id="Windiws &quot;Better Bahn&quot;">
        <g id="Window-Right--Bahn-" serif:id="Window Right &quot;Bahn&quot;" transform="matrix(1,0,0,1,-115.151,-65.8358)">
            <path d="M326.617,119.55C338.879,119.55 347.591,122.239 352.753,127.617C356.625,131.704 358.561,136.867 358.561,143.105C358.561,145.256 358.346,147.514 357.916,149.881L356.464,157.625C355.281,163.755 352.995,168.541 349.607,171.983C346.219,175.425 343.235,177.146 340.653,177.146L340.492,178.436C343.503,178.436 346.569,180.103 349.688,183.438C352.807,186.772 354.366,190.697 354.366,195.215C354.366,197.043 354.151,198.979 353.721,201.023L352.753,206.024C351.032,215.274 346.918,222.534 340.411,227.804C333.904,233.074 324.843,235.709 313.227,235.709L259.342,235.709L279.831,119.55L326.617,119.55ZM312.098,188.278L296.771,188.278L292.899,210.541L308.871,210.541C313.818,210.541 317.744,209.385 320.648,207.073C323.552,204.76 325.004,201.937 325.004,198.603C325.004,191.719 320.702,188.278 312.098,188.278ZM316.454,144.718L304.354,144.718L300.159,168.756L312.098,168.756C322.423,168.756 327.585,164.239 327.585,155.205C327.585,152.085 326.644,149.558 324.762,147.622C322.88,145.686 320.11,144.718 316.454,144.718Z" style="fill:url(#_Linear1);fill-rule:nonzero;"/>
        </g>
        <g id="Window-Left--Better-" serif:id="Window Left &quot;Better&quot;" transform="matrix(-1,0,0,1,394.191,-65.8358)">
            <path d="M326.617,119.55C338.879,119.55 347.591,122.239 352.753,127.617C356.625,131.704 358.561,136.867 358.561,143.105C358.561,145.256 358.346,147.514 357.916,149.881L356.464,157.625C355.281,163.755 352.995,168.541 349.607,171.983C346.219,175.425 343.235,177.146 340.653,177.146L340.492,178.436C343.503,178.436 346.569,180.103 349.688,183.438C352.807,186.772 354.366,190.697 354.366,195.215C354.366,197.043 354.151,198.979 353.721,201.023L352.753,206.024C351.032,215.274 346.918,222.534 340.411,227.804C333.904,233.074 324.843,235.709 313.227,235.709L259.342,235.709L279.831,119.55L326.617,119.55ZM312.098,188.278L296.771,188.278L292.899,210.541L308.871,210.541C313.818,210.541 317.744,209.385 320.648,207.073C323.552,204.76 325.004,201.937 325.004,198.603C325.004,191.719 320.702,188.278 312.098,188.278ZM316.454,144.718L304.354,144.718L300.159,168.756L312.098,168.756C322.423,168.756 327.585,164.239 327.585,155.205C327.585,152.085 326.644,149.558 324.762,147.622C322.88,145.686 320.11,144.718 316.454,144.718Z" style="fill:url(#_Linear2);fill-rule:nonzero;"/>
        </g>
    </g>
    <g id="Headlights">
        <g id="Headlights-Right" serif:id="Headlights Right" transform="matrix(0.772114,0,0,-0.772114,-304.599,487.022)">
            <path d="M685.844,335.445C687.245,335.877 688.687,336.162 690.147,336.297C696.048,336.862 700.305,336.739 703.879,335.508C712.194,332.644 715.363,328.269 715.363,322.093C715.363,305.39 697.075,285.726 680.372,285.726C667.567,286.364 659.539,297.789 660.368,312.685C661.319,322.325 668.795,330.188 685.844,335.445Z" style="fill:none;stroke:black;stroke-width:12.43px;stroke-linecap:butt;stroke-miterlimit:1.5;"/>
        </g>
        <g id="Headlights-Left" serif:id="Headlights Left" transform="matrix(0.772114,0,0,0.772114,-478.491,6.49809)">
            <path d="M685.844,335.445C687.245,335.877 688.687,336.162 690.147,336.297C696.048,336.862 700.305,336.739 703.879,335.508C712.194,332.644 715.363,328.269 715.363,322.093C715.363,305.39 697.075,285.726 680.372,285.726C667.567,286.364 659.539,297.789 660.368,312.685C661.319,322.325 668.795,330.188 685.844,335.445Z" style="fill:none;stroke:black;stroke-width:13.81px;stroke-linecap:butt;stroke-miterlimit:1.5;"/>
        </g>
    </g>
    <defs>
        <linearGradient id="_Linear1" x1="0" y1="0" x2="1" y2="0" gradientUnits="userSpaceOnUse" gradientTransform="matrix(0.0115944,-193.047,-193.047,-0.0115944,254.659,312.597)"><stop offset="0" style="stop-color:rgb(51,177,204);stop-opacity:1"/><stop offset="1" style="stop-color:rgb(51,177,204);stop-opacity:0"/></linearGradient>
        <linearGradient id="_Linear2" x1="0" y1="0" x2="1" y2="0" gradientUnits="userSpaceOnUse" gradientTransform="matrix(0.0115944,-193.047,-193.047,-0.0115944,254.659,312.597)"><stop offset="0" style="stop-color:rgb(51,177,204);stop-opacity:1"/><stop offset="1" style="stop-color:rgb(51,177,204);stop-opacity:0"/></linearGradient>
    </defs>
</svg>
